HIERARCHY
ROOT Hips
{
     OFFSET 1.88212 96.90440 -13.34250
     CHANNELS 6 Xposition Yposition Zposition Zrotation Xrotation Yrotation
     JOINT Spine
     {
          OFFSET 0.00000 11.89050 0.00000
          CHANNELS 3 Zrotation Xrotation Yrotation
          JOINT Spine1
          {
               OFFSET -0.00000 25.65740 0.12766
               CHANNELS 3 Zrotation Xrotation Yrotation
               JOINT HEad
               {
                    OFFSET 0.00000 8.73416 0.01134
                    CHANNELS 3 Zrotation Xrotation Yrotation
                    End Site
                    {
                         OFFSET -0.29000 12.77420 2.51395
                    }
               }
               JOINT LeftShoulder1
               {
                    OFFSET 8.99000 -0.36225 -0.22000
                    CHANNELS 3 Zrotation Xrotation Yrotation
                    JOINT LeftArm
                    {
                         OFFSET 10.28270 -0.00338 0.32212
                         CHANNELS 3 Zrotation Xrotation Yrotation
                         JOINT LeftForeArm
                         {
                              OFFSET 32.76690 0.09914 -1.42434
                              CHANNELS 3 Zrotation Xrotation Yrotation
                              JOINT LeftHand
                              {
                                   OFFSET 27.56430 0.08536 1.02216
                                   CHANNELS 3 Zrotation Xrotation Yrotation
                                   End Site
                                   {
                                        OFFSET 16.74430 -0.60000 1.50291
                                   }
                              }
                         }
                    }
               }
               JOINT RightShoulder
               {
                    OFFSET -8.99000 -0.36225 -0.22000
                    CHANNELS 3 Zrotation Xrotation Yrotation
                    JOINT RightArm
                    {
                         OFFSET -10.28270 -0.00338 0.32212
                         CHANNELS 3 Zrotation Xrotation Yrotation
                         JOINT RightForeArm
                         {
                              OFFSET -32.89710 0.09914 -1.42434
                              CHANNELS 3 Zrotation Xrotation Yrotation
                              JOINT RightHand
                              {
                                   OFFSET -27.49210 0.08536 1.02216
                                   CHANNELS 3 Zrotation Xrotation Yrotation
                                   End Site
                                   {
                                        OFFSET -16.63120 -0.60000 1.50291
                                   }
                              }
                         }
                    }
               }
          }
     }
     JOINT LeftUpLeg
     {
          OFFSET 8.94580 -8.66707 0.10165
          CHANNELS 3 Zrotation Xrotation Yrotation
          JOINT LeftLeg
          {
               OFFSET 0.00000 -44.42270 1.37270
               CHANNELS 3 Zrotation Xrotation Yrotation
               JOINT LeftFoot
               {
                    OFFSET -0.25355 -42.09240 -1.46059
                    CHANNELS 3 Zrotation Xrotation Yrotation
                    JOINT LeftToes
                    {
                         OFFSET -0.04000 -4.41509 8.49910
                         CHANNELS 3 Zrotation Xrotation Yrotation
                         End Site
                         {
                              OFFSET 0.08000 -0.04745 9.77979
                         }
                    }
               }
          }
     }
     JOINT RightUpLeg
     {
          OFFSET -8.94580 -8.66707 0.10165
          CHANNELS 3 Zrotation Xrotation Yrotation
          JOINT RightLeg
          {
               OFFSET 0.00000 -44.42270 1.37270
               CHANNELS 3 Zrotation Xrotation Yrotation
               JOINT RightFoot
               {
                    OFFSET 0.25355 -42.09240 -1.46059
                    CHANNELS 3 Zrotation Xrotation Yrotation
                    JOINT RightToes
                    {
                         OFFSET 0.04000 -4.41509 8.49910
                         CHANNELS 3 Zrotation Xrotation Yrotation
                         End Site
                         {
                              OFFSET -0.08000 -0.13745 9.77979
                         }
                    }
               }
          }
     }
}
MOTION
Frames: 18
Frame Time: 0.01667
38.98315 22.08202 -146.95473 6.64827 -37.12919 -37.37425 -10.80787 41.46004 17.74567 0.01840 0.02400 -0.00092 -32.33932 27.14933 37.99515 1.21097 14.07397 -1.16409 -119.97843 -16.45955 -80.60780 -60.70638 44.39413 -76.52641 21.11922 -6.19914 -67.97416 13.53071 16.60045 13.75025 54.91429 22.77816 85.63586 56.35559 13.25851 70.02135 -3.95584 9.27622 45.19811 42.06756 -54.73172 47.45733 -231.87878 59.08029 235.02841 -22.71835 0.00721 -0.00291 -0.82580 13.03988 -1.09712 -54.40238 -46.85401 -12.34517 188.89989 18.79816 -193.40805 85.42765 0.01047 -0.00010 -36.60997 -54.45843 42.35754 
38.90436 22.99156 -146.72237 6.94861 -37.08125 -36.98047 -11.20278 40.56825 17.53453 0.01880 0.02695 0.00161 -31.52459 26.98910 38.01629 1.38108 14.91523 -1.04506 -119.70532 -16.45050 -80.31946 -60.36845 44.52743 -76.63823 20.87195 -6.36040 -68.22165 14.17494 17.51403 13.80398 54.52837 22.39182 85.14571 56.44034 13.60296 70.35820 -3.88005 9.40689 45.28625 41.53633 -53.93610 47.03321 -231.72601 59.97055 234.65573 -21.89891 0.01023 -0.00301 -0.38938 12.38181 -1.77171 -54.43943 -45.24825 -9.50876 188.56044 20.75642 -191.28568 84.42780 -0.00132 0.01292 -34.91992 -54.05112 42.38331 
38.89090 24.13555 -146.36137 7.25641 -36.96894 -36.53547 -11.70107 41.12096 17.37064 0.02873 0.11957 0.00203 -30.76146 25.54244 37.21312 1.14875 14.22621 -0.77689 -119.37260 -16.39804 -79.99580 -60.09002 44.65112 -76.77487 20.82108 -6.54180 -68.32156 14.30257 16.94041 14.16529 54.14714 22.05739 84.80751 56.49852 13.87284 70.65255 -3.81746 9.45726 45.23517 40.42652 -53.23477 45.82263 -231.65701 60.79138 234.46133 -21.51738 0.00921 -0.00341 0.04863 11.47646 -2.33658 -54.62174 -43.48273 -7.40838 188.35858 23.42699 -189.88770 83.40106 0.00646 0.00435 -33.91781 -53.38112 41.73606 
38.90997 25.34109 -145.95003 7.54348 -36.80133 -36.05766 -11.99421 41.68764 17.06744 0.01391 0.01652 0.00111 -30.24874 24.28597 36.60516 0.86145 13.71235 -0.49168 -119.06171 -16.36203 -79.68021 -59.87861 44.78287 -76.90665 20.64615 -6.60455 -68.57737 14.32242 16.53523 14.49427 53.80938 21.73866 84.54921 56.53668 14.08121 70.89194 -3.68591 9.51544 45.39800 38.69546 -52.58871 43.82748 -231.53177 61.77816 234.44466 -21.36626 0.00727 -0.00427 0.42632 10.49753 -2.80895 -54.83248 -41.64276 -6.04804 188.25880 26.13182 -189.21611 82.42243 0.00670 0.00826 -33.01202 -52.46463 41.19614 
38.99637 26.85244 -145.47336 7.81285 -36.56742 -35.54461 -12.10467 42.22719 16.64944 0.00973 0.00968 0.00166 -29.90411 22.99142 36.01257 0.48826 13.11962 -0.14848 -118.77559 -16.30161 -79.44199 -59.74779 44.84394 -77.02230 20.65001 -6.69708 -68.73946 14.09357 16.05181 14.92823 53.60969 21.42700 84.44787 56.53192 14.18155 71.08595 -3.53138 9.50566 45.42375 36.74729 -51.84921 41.45744 -229.69528 64.30669 233.33368 -19.63749 0.00092 0.00221 0.88741 9.59433 -3.61926 -54.91781 -39.72804 -5.30636 188.30289 28.85804 -189.25067 81.58792 0.00573 0.00825 -32.07667 -51.35958 40.96527 
39.14933 28.48811 -144.98114 8.07539 -36.28158 -34.98421 -12.05782 42.72959 16.12704 0.00857 0.00821 0.00198 -29.70964 21.75162 35.47437 0.08216 12.52387 0.23345 -118.54172 -16.21512 -79.26218 -59.67879 44.89968 -77.11087 20.54261 -6.67625 -68.95119 13.74722 15.56060 15.38240 53.47878 21.18314 84.47118 56.48925 14.21694 71.23421 -3.29738 9.56898 45.62094 34.98563 -50.94223 39.11216 -226.71811 67.61989 231.21425 -17.13733 -0.00552 0.00131 1.31660 8.86827 -4.58508 -54.85846 -37.76104 -5.14760 188.55396 31.68129 -189.91861 80.91408 0.00496 0.00640 -31.35917 -50.22051 40.56064 
39.38287 30.58904 -144.41809 8.57890 -33.97459 -33.60997 -10.06780 41.57304 14.24470 0.00546 0.00720 0.00286 -29.62634 20.58123 34.97553 -0.39753 11.93455 0.73856 -118.30997 -16.05401 -79.13039 -59.63674 44.92007 -77.24923 20.61936 -6.52827 -68.87231 13.17664 15.07058 15.91991 53.51067 20.97655 84.66605 56.40738 14.19478 71.34190 -2.73185 9.67709 45.54467 35.08453 -51.62644 37.74476 -222.48149 71.40822 227.67058 -14.29433 -0.01080 -0.00142 1.61300 8.36801 -5.56995 -54.91924 -36.17734 -7.57403 188.90828 34.89589 -191.01796 80.35133 0.00554 0.00414 -30.90352 -49.01206 39.84855 
39.64582 32.82892 -143.84628 8.96079 -32.00492 -32.37688 -8.35798 40.61657 12.61583 0.00546 0.00617 0.00302 -29.63407 19.48362 34.51340 -0.90721 11.36105 1.26222 -118.10455 -15.89278 -79.05245 -59.56311 44.96926 -77.42567 20.65319 -6.37063 -68.75876 12.55449 14.58683 16.40849 53.54381 20.87042 84.97154 56.27596 14.19723 71.39404 -2.49957 9.89971 45.66866 34.84398 -51.83323 36.18559 -219.71022 74.24285 225.05020 -12.86472 -0.00296 -0.00207 1.72278 7.81450 -6.14472 -54.54852 -34.46223 -9.78352 189.39638 38.49335 -192.45766 79.88942 0.00597 0.00313 -31.14149 -47.71471 38.52555 
39.89761 35.51470 -143.19934 9.21386 -30.28621 -31.27311 -6.85335 39.79581 11.22842 0.00260 0.00537 0.00400 -29.67262 18.43421 34.07154 -1.45426 10.76728 1.86791 -117.83769 -15.76540 -79.02901 -59.24145 44.95804 -77.80988 21.31532 -5.82971 -67.88713 11.68084 14.04191 16.91714 53.75122 20.79240 85.43266 55.95621 14.24953 71.40485 -2.41151 10.44272 45.25505 33.92854 -51.57622 34.14997 -218.30014 77.03391 223.64114 -12.40816 -0.00436 -0.00618 1.51005 7.55314 -6.30456 -53.80891 -32.61247 -11.67700 189.98892 42.60172 -194.08740 79.50356 0.00680 0.00251 -31.80050 -46.35178 36.91059 
40.09405 38.24566 -142.54184 9.32670 -28.76311 -30.29485 -5.67102 38.64787 10.11173 0.00512 0.00940 0.00545 -29.59026 17.73702 33.90606 -1.76758 10.57371 2.51270 -117.58615 -15.74605 -79.12160 -58.57706 44.95152 -78.35802 22.03580 -5.61781 -67.07679 10.99874 13.87142 17.36138 53.93286 20.68034 85.96347 55.39327 14.39118 71.41537 -3.01302 10.75562 45.23560 32.32983 -50.88635 31.61637 -218.46115 80.03931 223.84428 -11.95793 -0.00579 -0.00525 1.34500 7.21942 -6.32377 -52.82044 -30.69811 -13.25889 190.73418 47.08783 -195.82881 79.19057 0.00654 0.00264 -32.95494 -44.76925 34.94025 
40.23286 41.40495 -141.76311 9.30074 -27.33914 -29.43240 -4.82383 37.19044 9.32955 0.00490 0.01389 0.00840 -29.27694 17.30429 33.91534 -2.03514 10.57164 3.24676 -116.99529 -16.34517 -79.24609 -51.53510 45.44777 -83.46326 34.54539 6.06999 -58.62597 10.10336 13.74935 17.85410 54.55550 20.05979 86.70538 50.47250 17.02714 72.96436 -12.89194 23.07883 35.61543 30.08602 -49.72302 28.60466 -222.23599 83.42548 227.82002 -11.65247 -0.00784 -0.00485 1.09686 6.83318 -6.22645 -51.66785 -28.64119 -14.43230 191.48535 52.12474 -197.45166 78.86437 0.00819 0.00265 -34.30486 -42.99234 32.94231 
40.31891 44.60044 -140.94342 9.14807 -25.97506 -28.67244 -4.27305 35.47774 8.84864 0.00802 0.01797 0.00962 -28.72400 17.06394 34.04481 -1.89667 10.77485 3.87391 -116.55082 -17.24215 -79.70137 -40.86691 45.50379 -90.65784 30.36247 -6.84496 -57.72921 9.57688 13.83987 18.35394 55.09320 19.08356 87.35004 42.63968 20.48861 75.56470 -11.71555 6.16493 40.34670 27.45397 -48.09579 25.35006 -354.07999 90.00000 360.00000 -11.17982 -0.00811 -0.00329 0.88862 6.48842 -6.05772 -50.45285 -26.43452 -15.07373 191.91136 57.70554 -198.53255 78.45909 0.01105 0.00367 -35.90147 -40.98107 30.75772 
40.39129 48.29709 -139.93652 8.46545 -22.64206 -27.69453 -2.09566 32.35886 7.86553 0.00268 0.01545 0.00892 -28.10787 16.66131 34.04543 -2.11340 10.62010 4.40867 -117.06799 -20.66889 -83.86237 -33.87574 44.54564 -93.88950 43.52868 7.63486 -43.78880 8.78885 13.51798 18.83745 56.04384 17.97042 88.09763 32.95424 23.62251 79.66389 -25.79250 18.56990 23.14246 26.16114 -47.63162 22.41754 -353.49954 90.00000 360.00000 -10.69526 -0.00953 -0.00277 0.60043 6.20970 -5.82203 -48.56550 -24.68961 -16.58445 190.98309 64.09525 -198.13354 77.82321 0.01943 0.00594 -37.59261 -38.71211 28.54643 
40.46482 52.03483 -138.87868 7.75742 -19.71528 -26.83726 -0.35315 29.61264 7.25309 0.00281 0.01387 0.00815 -27.42982 16.10771 33.93635 -2.34733 10.31651 4.75323 -117.11835 -23.43202 -86.50665 -23.62145 43.69838 -99.93568 43.66429 16.36316 -38.80417 7.98348 13.01861 19.22094 57.13504 16.57900 88.97984 22.15196 25.81684 85.02415 -29.17612 22.95199 22.94130 24.47690 -46.47446 19.45234 -360.57394 82.91401 367.67941 -10.13177 -0.00932 -0.00295 0.27397 6.23135 -5.48669 -46.66060 -22.69744 -16.91762 186.91158 71.17683 -194.50839 76.92500 0.02945 0.01048 -39.25697 -35.87122 26.24539 
40.59092 56.26818 -137.61041 7.02857 -17.09344 -26.10081 1.05119 27.14408 6.94632 -0.00008 0.01134 0.00740 -26.45707 13.86466 33.63937 -2.47748 9.77873 4.93114 -116.69270 -25.76140 -88.20107 -11.67409 42.06396 -106.86234 45.45689 -2.47290 -28.45972 7.33835 12.34683 19.52844 58.33910 15.15061 89.66001 10.43706 27.62157 90.93457 -39.35794 17.18578 0.06290 22.53493 -44.63896 16.60485 -365.14404 77.87778 372.95251 -9.66528 -0.00001 -0.00152 -0.31149 6.69819 -4.85902 -44.71900 -20.41163 -16.12530 173.46463 79.41785 -182.99640 65.00561 0.32359 0.40092 -29.68356 -30.67237 23.92244 
40.78211 60.49960 -136.29076 6.28425 -14.73664 -25.48129 2.19085 24.91903 6.88698 0.00196 0.00883 0.00645 -25.45480 11.73325 33.28133 -2.49263 9.18376 5.04862 -115.93684 -27.65055 -89.33549 0.88390 39.42607 -113.71619 38.96846 15.95527 -18.18357 6.89145 11.64629 19.66826 59.51729 13.71822 90.17748 -2.02487 29.06061 97.53771 -35.29524 5.53163 -1.99596 20.52327 -42.20652 14.07929 -365.69800 72.28256 374.24280 -9.23635 0.00019 -0.00190 -0.69190 7.43724 -4.09191 -42.74192 -17.79553 -14.29761 110.16052 84.11150 -121.14766 53.02976 0.31011 0.46180 -19.97154 -25.49528 21.86413 
41.09714 65.11475 -134.73152 5.32698 -12.11201 -24.93723 3.52734 22.52042 6.97752 0.00113 0.00760 0.00712 -24.40852 9.73228 32.86311 -2.49478 8.41750 5.09891 -114.77238 -29.29975 -90.05421 6.91878 37.23499 -116.44835 45.54251 6.15734 -18.70072 6.67848 10.84255 19.85631 60.72013 12.10509 90.21320 -8.69317 29.20465 101.03351 -39.53911 3.48565 -11.28525 18.87563 -39.54806 12.05294 -364.76208 66.01315 374.05426 -8.76974 0.00017 -0.00299 -1.15886 8.67699 -2.92235 -40.30709 -14.93209 -11.81295 51.55083 76.95855 -64.46511 47.94149 0.08283 0.30137 -17.09063 -18.15311 19.48320 
41.50073 69.57448 -133.11504 4.39010 -9.70619 -24.47101 4.66573 20.28868 7.23908 0.00400 0.00560 0.00583 -23.35419 7.87372 32.40341 -2.42497 7.66508 5.03940 -113.50721 -30.46537 -90.56921 9.79012 36.11125 -117.37377 40.02073 4.62909 -12.54796 6.72394 10.10537 19.86852 61.74828 10.62752 89.90177 -11.81471 29.25210 102.94203 -37.17239 -1.31405 -9.45695 17.24529 -36.40657 10.61246 -363.01862 59.23295 372.96725 -8.39016 -0.00098 -0.00391 -1.43368 10.12348 -1.74654 -37.63102 -11.56622 -8.44308 39.85545 66.71196 -55.44550 40.35524 0.05857 0.36482 -11.05493 -12.08404 18.12651 
